<?xml version="1.0" standalone="no"?>
<!DOCTYPE svg PUBLIC "-//W3C//DTD SVG 20010904//EN"
 "http://www.w3.org/TR/2001/REC-SVG-20010904/DTD/svg10.dtd">
<svg version="1.0" xmlns="http://www.w3.org/2000/svg"
 width="256.000000pt" height="256.000000pt" viewBox="0 0 256.000000 256.000000"
 preserveAspectRatio="xMidYMid meet">

<g transform="translate(0.000000,256.000000) scale(0.100000,-0.100000)"
fill="#000000" stroke="none">
<path d="M1019 2546 c-51 -18 -92 -49 -136 -103 -34 -41 -83 -73 -112 -73 -6
0 4 22 20 49 17 27 30 54 28 59 -7 17 -153 -102 -176 -143 -13 -23 -30 -40
-40 -40 -15 0 -18 9 -18 61 0 49 6 73 33 125 l33 64 -42 -40 c-50 -49 -82 -97
-98 -150 -31 -102 -43 -125 -77 -146 -19 -11 -48 -42 -65 -67 -17 -26 -62 -76
-100 -112 -69 -66 -69 -66 -69 -120 0 -30 5 -62 10 -70 5 -8 10 -10 10 -4 0 7
21 35 46 63 69 77 154 95 154 33 0 -42 -27 -126 -50 -155 l-21 -26 25 -7 c34
-8 63 10 86 56 27 53 74 105 127 142 42 29 44 32 38 68 -6 33 -3 40 22 60 25
20 36 22 96 17 83 -7 121 5 137 43 7 16 19 31 28 34 10 3 -9 3 -40 1 -65 -6
-84 8 -48 37 34 27 118 24 180 -7 57 -29 115 -32 150 -8 l24 17 -24 6 c-14 3
-27 14 -28 24 -4 17 1 18 46 13 58 -7 118 -34 147 -67 38 -44 107 -80 149 -80
36 1 38 2 21 12 -41 23 -115 108 -115 133 0 13 58 -27 94 -64 42 -43 86 -58
133 -46 28 7 28 7 6 18 -13 5 -23 19 -23 29 0 14 6 19 23 16 17 -2 32 -23 62
-85 48 -99 63 -115 123 -141 97 -41 101 -40 50 16 -54 60 -80 113 -76 149 l3
26 58 -47 c61 -50 87 -89 87 -131 0 -43 27 -93 59 -109 38 -20 37 -21 36 11 0
45 24 38 47 -14 19 -41 22 -63 20 -146 -2 -91 0 -103 25 -148 45 -83 54 -83
47 2 -6 74 11 155 32 153 20 -2 47 -101 48 -179 1 -65 -3 -88 -22 -122 -24
-46 -28 -98 -10 -138 14 -30 24 -32 31 -5 8 30 37 25 37 -6 0 -53 -23 -113
-62 -160 -52 -63 -58 -81 -58 -167 l0 -72 35 65 c40 75 98 135 103 107 4 -19
-37 -114 -69 -158 -11 -16 -49 -46 -85 -66 -64 -37 -94 -76 -94 -122 0 -20 1
-21 24 -6 19 13 25 13 35 2 17 -21 -15 -43 -73 -51 -85 -11 -126 -26 -164 -61
-35 -31 -80 -95 -67 -95 3 0 29 12 57 26 52 26 168 45 168 28 0 -12 -92 -91
-123 -105 -20 -9 -34 -8 -71 6 -52 20 -104 14 -130 -14 -17 -19 -17 -20 6 -23
12 -2 24 -11 26 -20 4 -22 -37 -23 -189 -7 -99 11 -104 10 -151 -12 -26 -13
-48 -27 -48 -30 0 -3 25 -16 55 -28 30 -13 55 -26 55 -31 0 -8 -73 -20 -119
-20 -44 0 -99 20 -130 46 -37 31 -87 46 -124 38 l-27 -6 22 -18 c16 -13 20
-22 12 -29 -18 -19 -125 42 -174 100 -45 53 -95 82 -165 95 l-40 7 52 -41 c96
-76 114 -128 31 -86 -105 52 -120 69 -147 172 -9 31 -21 48 -44 62 -41 25 -61
26 -49 2 5 -9 7 -23 5 -29 -10 -27 -32 -11 -57 39 -21 43 -26 66 -26 132 0 71
-4 87 -29 131 -32 55 -80 106 -67 71 21 -58 18 -206 -4 -206 -5 0 -30 43 -56
95 l-48 96 17 47 c21 57 21 89 2 122 -14 25 -14 25 -15 3 0 -14 -6 -23 -16
-23 -14 0 -16 8 -10 53 4 28 18 70 31 92 14 22 31 55 40 73 18 37 32 152 19
152 -5 0 -17 -21 -28 -46 -18 -45 -61 -104 -75 -104 -4 0 -4 32 0 72 6 55 16
83 40 122 24 37 34 66 37 108 6 75 -1 91 -22 51 -16 -32 -48 -44 -61 -23 -8
12 22 69 40 76 19 8 41 43 65 105 l21 52 -29 -29 c-16 -16 -48 -40 -71 -54
-23 -14 -56 -45 -72 -69 -28 -43 -29 -47 -29 -175 0 -186 -12 -220 -43 -122
-10 29 -15 62 -11 72 4 14 -2 11 -20 -9 -31 -33 -33 -65 -7 -115 21 -40 38
-112 27 -112 -16 0 -58 35 -71 59 l-14 26 -1 -37 c0 -24 13 -63 36 -108 39
-76 51 -155 24 -155 -8 0 -20 16 -27 35 l-11 35 -7 -29 c-11 -40 11 -127 43
-175 15 -22 56 -72 90 -111 70 -78 66 -86 -28 -51 -71 27 -60 7 30 -54 71 -48
106 -93 86 -112 -4 -4 -46 12 -93 37 -110 58 -109 58 -87 20 29 -49 70 -81
188 -145 114 -63 148 -94 126 -120 -13 -16 -52 -6 -82 22 -28 25 -21 0 11 -44
45 -63 100 -83 259 -99 154 -15 221 -29 272 -54 l35 -18 -35 -6 c-56 -10 -164
-26 -175 -26 -5 -1 15 -10 45 -21 62 -23 124 -27 255 -15 72 6 94 5 109 -7 28
-21 11 -37 -42 -38 l-47 -1 40 -19 c63 -31 153 -22 244 25 80 41 166 66 224
66 l38 0 -26 -35 c-15 -19 -48 -48 -73 -66 l-47 -31 72 4 c71 4 72 4 130 59
66 64 104 86 160 95 27 4 42 2 50 -8 16 -19 4 -34 -43 -58 l-39 -19 54 -1 c71
0 129 28 181 88 22 26 68 80 102 120 35 41 74 89 87 108 13 19 26 33 28 31 2
-2 -3 -46 -12 -98 -20 -128 -20 -128 26 -73 52 63 64 91 83 196 18 108 39 150
69 146 23 -3 27 -20 14 -70 -11 -42 18 -25 49 28 34 58 41 139 20 222 -21 84
-21 83 19 172 19 43 38 99 41 125 l7 46 38 -68 39 -68 0 88 c0 80 -3 93 -35
157 -41 80 -47 140 -15 140 11 0 26 -12 34 -27 15 -27 15 -27 16 35 0 54 -4
70 -29 105 -16 23 -49 57 -74 76 -56 42 -111 153 -122 248 l-7 63 58 -26 c32
-14 71 -35 86 -45 40 -29 35 -10 -18 60 -34 45 -65 72 -117 103 -118 69 -153
102 -141 132 9 22 25 20 68 -9 42 -28 43 -26 14 26 -36 65 -136 119 -217 119
-48 0 -233 88 -211 100 8 4 44 11 80 14 129 14 130 15 58 47 -62 29 -64 29
-198 23 -121 -6 -138 -5 -153 11 -25 24 -6 43 46 47 l42 3 -35 20 c-25 13 -53
19 -98 19 -54 0 -74 -6 -143 -42 -76 -39 -139 -54 -139 -33 0 6 45 32 100 60
l99 50 -55 7 c-76 9 -111 2 -214 -46 -99 -46 -155 -51 -155 -15 0 14 12 24 44
36 40 14 42 16 20 22 -37 10 -80 8 -120 -7z"/>
</g>
</svg>
